<svg version="1.1" viewBox="0 0 200 113.56" xmlns="http://www.w3.org/2000/svg" xmlns:xlink="http://www.w3.org/1999/xlink">
<defs>
<clipPath id="clipPath8">
<path d="m76 2v46h-22v23h-18.419c-0.07818 0.66569-0.14148 1.3329-0.20574 2-1.1512 12.531 1.0364 24.088 6.0625 33.969l1.6875 3.0312c1.0114 1.8168 2.1912 3.523 3.4375 5.1875 1.2447 1.6625 1.6857 2.5826 2.4688 3.6875 13.289 14.936 33.098 22.125 55.969 22.125 50.648 0 93.633-22.438 112.66-72.844 13.497 1.385 26.443-2.0759 32.344-13.594-9.3986-5.4237-21.478-3.6853-28.438-0.1875l18.438-52.375-72 46h-23v-46z"/>
</clipPath>
</defs>
<path d="m115.65 35.86h17.93v18.329h9.066c4.1865 0 8.4928-0.74584 12.458-2.0893 1.9482-0.66058 4.1349-1.5799 6.0566-2.736-2.5311-3.3046-3.8233-7.4773-4.2038-11.59-0.51654-5.5942 0.61188-12.876 4.3982-17.254l1.8848-2.18 2.2459 1.8054c5.6547 4.5431 10.41 10.891 11.248 18.128 6.8087-2.0028 14.803-1.5291 20.804 1.9347l2.4622 1.4207-1.296 2.5294c-5.0756 9.9063-15.687 12.975-26.061 12.432-15.524 38.664-49.32 56.969-90.299 56.969-21.171 0-40.594-7.914-51.655-26.697-0.64849-1.1668-1.2038-2.3868-1.7928-3.5852-3.7389-8.2681-4.9807-17.326-4.1382-26.376l0.25281-2.7108h15.332v-18.329h17.93v-17.93h35.86v-17.93h21.516v35.86" fill="#394d54" stroke-width=".78413"/>
<g transform="matrix(.78413 0 0 .78413 0 -.000364)" clip-path="url(#clipPath8)">
<g id="g18">
<g id="g20" transform="translate(0,-22.866)">
<path d="m123.86 3.8111h19.818v19.817h-19.818z" fill="#00acd3"/>
<path d="m123.86 26.676h19.818v19.818h-19.818z" fill="#20c2ef"/>
<path id="path26" d="m126.29 21.977v-16.516m2.9718 16.516v-16.516m3.0018 16.516v-16.516m3.0034 16.516v-16.516m3.0029 16.516v-16.516m2.9713 16.516v-16.516" stroke="#394d54" stroke-width="1.56"/>
<use transform="translate(0,22.866)" width="100%" height="100%" xlink:href="#path26"/>
</g>
<use transform="matrix(1 0 0 -1 22.866 4.5727)" width="100%" height="100%" xlink:href="#g20"/>
</g>
<use transform="translate(-91.464,45.732)" width="100%" height="100%" xlink:href="#g18"/>
<use transform="translate(-45.732,45.732)" width="100%" height="100%" xlink:href="#g18"/>
<use transform="translate(0,45.732)" width="100%" height="100%" xlink:href="#g18"/>
</g>
<path transform="matrix(.78413 0 0 .78413 0 -.000364)" d="m221.57 54.38c1.5333-11.915-7.3838-21.275-12.914-25.718-6.3727 7.3678-7.363 26.678 2.635 34.807-5.5795 4.9561-17.337 9.4484-29.376 9.4484h-147.92c-1.1707 12.567 0 73.083 0 73.083h217l-0.98657-91.424c-9.3986-5.4237-21.484-3.6943-28.443-0.19655" clip-path="url(#clipPath8)" fill="#17b5eb"/>
<path transform="matrix(.78413 0 0 .78413 0 -.000364)" d="m34 89v57h217v-57" clip-path="url(#clipPath8)" fill-opacity=".17"/>
<path transform="matrix(.78413 0 0 .78413 0 -.000364)" d="m111.24 140.89c-13.54-6.4252-20.972-15.159-25.107-24.694l-41.131 1.8044 21 28 45.237-5.11" clip-path="url(#clipPath8)" fill="#d4edf1"/>
<path transform="matrix(.78413 0 0 .78413 0 -.000364)" d="m222.5 53.938v0.03125c-20.861 26.889-50.783 50.379-82.906 62.719-28.655 11.008-53.638 11.06-70.875 2.2188-1.8561-1.0483-3.6757-2.2115-5.5-3.3125-12.637-8.832-19.754-23.441-19.156-42.688h-10.062v73.094h217v-96h-25z" clip-path="url(#clipPath8)" fill-opacity=".085"/>
<path d="m35.776 91.768c11.107 0.60795 22.961 0.71696 33.301-2.5239" fill="none" stroke="#394d54" stroke-linecap="round" stroke-width="2.6661"/>
<g stroke-width=".78413">
<path d="m80.115 83.87c0 2.3673-1.9192 4.2865-4.2865 4.2865-2.3677 0-4.2873-1.9192-4.2873-4.2865s1.9196-4.2873 4.2873-4.2873c2.3673 0 4.2865 1.92 4.2865 4.2873z" fill="#d4edf1"/>
<path d="m76.94 81.007c-0.37418 0.21628-0.62741 0.62153-0.62741 1.0852 0 0.69209 0.56106 1.2523 1.2531 1.2523 0.47413 0 0.88611-0.26331 1.099-0.6522 0.15034 0.36243 0.23392 0.76054 0.23392 1.178 0 1.6954-1.3745 3.0699-3.0703 3.0699-1.6954 0-3.0707-1.3745-3.0707-3.0699 0-1.6962 1.3754-3.0711 3.0707-3.0711 0.39224 0 0.76642 0.0739 1.1116 0.20788z" fill="#394d54"/>
<path d="m0 70.699h199.43c-4.3423-1.1015-13.739-2.5894-12.189-8.2802-7.8956 9.1365-26.937 6.4098-31.743 1.9045-5.3515 7.7616-36.505 4.8114-38.678-1.2351-6.7088 7.8733-27.497 7.8733-34.207 0-2.1737 6.0465-33.327 8.9967-38.679 1.2351-4.8055 4.5053-23.845 7.232-31.742-1.9045 1.5496 5.6908-7.8468 7.1787-12.19 8.2802" fill="#394d54"/>
</g>
</svg>
