<svg id="AW" width="200" height="200" enable-background="new 0 0 1190.551 841.89" version="1.1" viewBox="0 0 199.99999 199.99999" xmlns="http://www.w3.org/2000/svg">
<g transform="translate(-202.2 -324.41)">
<g transform="matrix(1.0079 0 0 1.0079 -1.6039 -4.1599)">
<g>
<path d="m301.41 325.98c-54.706 0-99.214 44.511-99.214 99.21 0 54.706 44.508 99.216 99.214 99.216 54.711 0 99.212-44.51 99.212-99.216-1e-3 -54.699-44.501-99.21-99.212-99.21z" fill="#e95420"/>
</g>
<g fill="#fff">
<path d="m348.18 377.72h-93.543c-2.348 0-4.252 1.903-4.252 4.253v5.669c0 2.348 1.904 4.251 4.252 4.251h6e-3 93.53 6e-3c2.348 0 4.252-1.903 4.252-4.251v-5.669c1e-3 -2.35-1.902-4.253-4.251-4.253z"/>
<path d="m348.18 404.65v-2e-3h-93.543v2e-3c-2.348 0-4.252 1.903-4.252 4.251v5.668c0 2.349 1.904 4.253 4.252 4.253 1e-3 0 4e-3 -1e-3 6e-3 -1e-3h93.53c2e-3 0 4e-3 1e-3 6e-3 1e-3 2.348 0 4.252-1.905 4.252-4.253v-5.668c1e-3 -2.348-1.902-4.251-4.251-4.251z"/>
<path d="m348.18 431.58h-93.543c-2.348 0-4.252 1.905-4.252 4.253v5.669c0 2.349 1.904 4.252 4.252 4.252h93.543c2.349 0 4.251-1.903 4.251-4.252v-5.669c1e-3 -2.348-1.902-4.251-4.251-4.253z"/>
<path d="m348.18 458.5h-93.543c-2.348 0-4.252 1.903-4.252 4.252v5.67c0 2.347 1.904 4.252 4.252 4.252h93.543c2.349 0 4.251-1.905 4.251-4.252v-5.67c1e-3 -2.349-1.902-4.252-4.251-4.252z"/>
</g>
</g>
</g>
</svg>
